Coordinates
version=1
nRows=9
nColumns=63
inDegrees=yes

Units are S.I. units (second, meters, Newtons, ...)
If the header above contains a line with 'inDegrees', this indicates whether rotational values are in degrees (yes) or radians (no).

endheader
time	pelvis_tilt	pelvis_list	pelvis_rotation	pelvis_tx	pelvis_ty	pelvis_tz	hip_flexion_r	hip_adduction_r	hip_rotation_r	knee_angle_r	knee_angle_r_beta	ankle_angle_r	subtalar_angle_r	mtp_angle_r	hip_flexion_l	hip_adduction_l	hip_rotation_l	knee_angle_l	knee_angle_l_beta	ankle_angle_l	subtalar_angle_l	mtp_angle_l	L5_S1_Flex_Ext	L5_S1_Lat_Bending	L5_S1_axial_rotation	L4_L5_Flex_Ext	L4_L5_Lat_Bending	L4_L5_axial_rotation	L3_L4_Flex_Ext	L3_L4_Lat_Bending	L3_L4_axial_rotation	L2_L3_Flex_Ext	L2_L3_Lat_Bending	L2_L3_axial_rotation	L1_L2_Flex_Ext	L1_L2_Lat_Bending	L1_L2_axial_rotation	L1_T12_Flex_Ext	L1_T12_Lat_Bending	L1_T12_axial_rotation	Abs_r3	Abs_r2	Abs_r1	Abs_t1	Abs_t2	neck_flexion	neck_bending	neck_rotation	arm_flex_r	arm_add_r	arm_rot_r	elbow_flex_r	pro_sup_r	wrist_flex_r	wrist_dev_r	arm_flex_l	arm_add_l	arm_rot_l	elbow_flex_l	pro_sup_l	wrist_flex_l	wrist_dev_l
     33.66666667	     -2.11168659	     -0.48529664	      3.99692815	      0.00629992	      0.88310269	      0.30829989	      9.47181008	      2.55425382	    -13.69251235	     13.00226991	      0.22693242	      4.75492979	     -1.65796717	      0.00000000	      8.35013956	     -4.45100908	      0.67073600	     56.77784615	      0.99096036	    -14.43415253	    -19.25199783	      0.00000000	      0.00780199	     -0.05311684	     -1.09235764	      0.01448908	     -0.07064539	     -1.16062999	      0.01281789	     -0.12914828	     -1.16062999	      0.00891690	     -0.12914828	     -0.95581294	      0.00724493	     -0.10831585	     -0.88754058	      0.00445806	     -0.08227798	     -0.81926823	      0.05572886	     -0.60086828	     -6.07536549	      0.00000000	      0.00000000	     -0.00000000	      0.00000000	     -0.00000000	     -4.71671493	     -9.61379862	     11.99620250	     24.89551104	     41.28240442	      0.00000000	      5.00000014	     -3.78434964	     -9.95110665	      3.88854807	     29.63292443	     43.41056533	      0.00000000	      5.00000014
     33.70000000	     -2.10816940	      0.01350649	      2.80823821	      0.03296597	      0.88580242	      0.31066797	      6.90383381	      2.39883091	    -12.19813920	     11.88234027	      0.20738596	      5.34972455	     -0.48367088	      0.00000000	     13.36300001	     -3.72100014	      0.66587132	     60.03539818	      1.04781537	     -9.74832211	    -19.34672471	      0.00000000	      0.00696785	     -0.11643233	     -0.66850786	      0.01293999	     -0.15485499	     -0.71028960	      0.01144748	     -0.28309356	     -0.71028960	      0.00796356	     -0.28309356	     -0.58494438	      0.00647034	     -0.23742880	     -0.54316264	      0.00398143	     -0.18035367	     -0.50138090	      0.04977065	     -1.31710577	     -3.71804017	      0.00000000	      0.00000000	     -0.00000000	      0.00000000	     -0.00000000	     -4.01550599	     -9.92864823	     11.51821921	     24.66389663	     41.17328321	      0.00000000	      5.00000014	     -4.00958131	     -9.68585520	      4.01845417	     29.68756075	     43.48599466	      0.00000000	      5.00000014
     33.73333333	     -2.09292997	     -0.03259961	      0.51767664	      0.06054873	      0.88752382	      0.31367212	      4.27232861	      2.64792037	    -10.46861099	     10.68752578	      0.18653251	      6.13212605	      1.82549234	      0.00000000	     17.83211868	     -4.12020222	     -0.70545864	     60.87480135	      1.06246572	     -3.38022131	    -19.36264097	      0.00000000	      0.00423765	     -0.11156453	      0.00215191	      0.00786975	     -0.14838083	      0.00228641	      0.00696204	     -0.27125800	      0.00228641	      0.00484321	     -0.27125800	      0.00188292	      0.00393508	     -0.22750239	      0.00174843	      0.00242139	     -0.17281346	      0.00161393	      0.03026913	     -1.26204031	      0.01196829	      0.00000000	      0.00000000	     -0.00000000	      0.00000000	     -0.00000000	     -3.76241028	    -10.50886408	     10.11477567	     25.80407247	     40.84369443	      0.00000000	      5.00000014	     -4.23258416	     -9.12496105	      4.38429973	     30.00928184	     43.66761488	      0.00000000	      5.00000014
     33.76666667	     -2.21074347	      0.05136075	     -1.60865470	      0.08824948	      0.88802777	      0.31627369	      2.10245044	      2.42525020	     -8.95163004	     10.18554364	      0.17777127	      7.50196710	      4.28943914	      0.00000000	     21.88556123	     -4.36533162	     -1.59184884	     58.95185898	      1.02890404	      2.37343091	    -19.30460259	      0.00000000	      0.00199350	     -0.12165610	      0.66266215	      0.00370213	     -0.16180261	      0.70407854	      0.00327512	     -0.29579464	      0.70407854	      0.00227837	     -0.29579464	      0.57982938	      0.00185116	     -0.24808112	      0.53841300	      0.00113909	     -0.18844530	      0.49699661	      0.01423936	     -1.37619814	      3.68552808	      0.00000000	      0.00000000	     -0.00000000	      0.00000000	     -0.00000000	     -3.94193576	    -10.96493995	      8.02216018	     28.31066520	     40.38162076	      0.00000000	      5.00000014	     -4.34157758	     -8.63894452	      4.91204799	     30.01778119	     43.86699166	      0.00000000	      5.00000014
     33.80000000	     -2.40329648	      0.04050097	     -3.26309976	      0.11605649	      0.88731918	      0.31853512	      0.30542334	      1.99311099	     -9.47286090	     10.31751583	      0.18007462	      9.36341077	      8.29477305	      0.00000000	     25.15694185	     -4.54713885	     -1.74290805	     54.24008499	      0.94666807	      6.11432060	    -19.11934684	      0.00000000	     -0.00052508	     -0.11922981	      1.23797876	     -0.00097513	     -0.15857565	      1.31535243	     -0.00086266	     -0.28989536	      1.31535243	     -0.00060012	     -0.28989536	      1.08323141	     -0.00048759	     -0.24313343	      1.00585774	     -0.00030003	     -0.18468698	      0.92848407	     -0.00375061	     -1.34875147	      6.88526644	      0.00000000	      0.00000000	     -0.00000000	      0.00000000	     -0.00000000	     -4.55728505	    -10.27500480	      0.79899860	     31.39942091	     38.91648243	      0.00000000	      5.00000014	     -4.19014612	     -8.52624712	      7.59506849	     29.47756318	     44.56707736	      0.00000000	      5.00000014
     33.83333333	     -2.66383579	     -0.17358583	     -4.55178290	      0.14339324	      0.88531971	      0.32079942	     -1.30739609	      1.82119478	     -9.74319932	     10.58004314	      0.18465659	     10.92762468	     10.93242700	      0.00000000	     27.39299889	     -4.83050284	     -1.52567713	     47.19347324	      0.82368149	      7.53047595	    -18.74692812	      0.00000000	     -0.00283534	     -0.09767954	      1.69526871	     -0.00526551	     -0.12991378	      1.80122300	     -0.00465818	     -0.23749803	      1.80122300	     -0.00324051	     -0.23749803	      1.48336012	     -0.00263289	     -0.19918811	      1.37740582	     -0.00162011	     -0.15130560	      1.27145153	     -0.02025253	     -1.10497046	      9.42857596	      0.00000000	      0.00000000	     -0.00000000	      0.00000000	     -0.00000000	     -4.83078634	    -10.59276047	     -0.31219120	     34.29156255	     38.48340142	      0.00000000	      5.00000014	     -3.92189844	     -8.63849766	     11.19740073	     28.56474629	     45.32587204	      0.00000000	      5.00000014
     33.86666667	     -2.97553974	     -0.28141474	     -5.53241239	      0.16986008	      0.88223131	      0.32337251	     -2.85521305	      1.71600298	     -9.18326429	     10.70707223	      0.18687366	     12.28750273	     11.75050932	      0.00000000	     28.32790230	     -4.94337231	     -1.55813900	     38.14876049	      0.66582148	      6.87437971	    -18.13339357	      0.00000000	     -0.00427104	     -0.09454508	      2.00868626	     -0.00793175	     -0.12574496	      2.13422915	     -0.00701689	     -0.22987692	      2.13422915	     -0.00488137	     -0.22987692	      1.75760048	     -0.00396609	     -0.19279634	      1.63205759	     -0.00244047	     -0.14645034	      1.50651469	     -0.03050760	     -1.06951291	     11.17171037	      0.00000000	      0.00000000	     -0.00000000	      0.00000000	     -0.00000000	     -4.71119799	    -10.81287213	     -0.46710900	     36.37529833	     38.42971479	      0.00000000	      5.00000014	     -3.86037956	     -8.48729840	     12.03604864	     27.42305595	     45.50151331	      0.00000000	      5.00000014
     33.90000000	     -3.30505694	     -0.39774312	     -6.37376795	      0.19547866	      0.87806334	      0.32601606	     -4.51935840	      1.70724217	     -8.86955836	     10.44659491	      0.18232748	     13.58171553	     12.55330921	      0.00000000	     28.03111558	     -5.02149369	     -2.49300178	     27.95256929	      0.48786437	      4.81549003	    -16.79433136	      0.00000000	     -0.00572195	     -0.09254566	      2.23387887	     -0.01062623	     -0.12308573	      2.37349630	     -0.00940059	     -0.22501553	      2.37349630	     -0.00653961	     -0.22501553	      1.95464401	     -0.00531340	     -0.18871912	      1.81502658	     -0.00326952	     -0.14335323	      1.67540915	     -0.04087130	     -1.04689507	     12.42416411	      0.00000000	      0.00000000	     -0.00000000	      0.00000000	     -0.00000000	     -4.34359861	    -10.76833666	     -0.98109679	     37.63001029	     38.33398364	      0.00000000	      5.00000014	     -3.85704990	     -8.52098045	     13.14935344	     26.20339496	     45.76329248	      0.00000000	      5.00000014
     33.93333333	     -3.60810223	     -0.49825431	     -7.54219106	      0.22091945	      0.87302097	      0.32857191	     -6.28921153	      1.59864552	     -8.83819717	      9.96570667	      0.17393439	     15.04106497	     14.13892057	      0.00000000	     26.99674340	     -5.22763266	     -5.74687646	     18.26798453	      0.31883648	      2.27519070	    -13.32601450	      0.00000000	     -0.00382900	     -0.08528170	      2.49751145	     -0.00711084	     -0.11342466	      2.65360591	     -0.00629067	     -0.20735393	      2.65360591	     -0.00437617	     -0.20735393	      2.18532252	     -0.00355561	     -0.17390644	      2.02922805	     -0.00218789	     -0.13210135	      1.87313359	     -0.02735018	     -0.96472365	     13.89040942	      0.00000000	      0.00000000	     -0.00000000	      0.00000000	     -0.00000000	     -3.94628826	    -10.21980598	     -3.45060370	     38.12614498	     37.65581887	      0.00000000	      5.00000014	     -3.14886483	     -9.81910972	     23.02718550	     24.63143893	     48.25591948	      0.00000000	      5.00000014
